HIERARCHY
ROOT Hips
{
  OFFSET 5.80788e-005 67.184 3.4734
  CHANNELS 6 Xposition Yposition Zposition Zrotation Xrotation Yrotation
  JOINT Chest
  {
    OFFSET 0 8.7983 -4.7612
    CHANNELS 6 Xposition Yposition Zposition Zrotation Xrotation Yrotation
    JOINT Chest2
    {
      OFFSET 0 8.0291 0.4195
      CHANNELS 6 Xposition Yposition Zposition Zrotation Xrotation Yrotation
      JOINT Chest3
      {
        OFFSET 0 9.9351 -2.2114
        CHANNELS 6 Xposition Yposition Zposition Zrotation Xrotation Yrotation
        JOINT Neck
        {
          OFFSET 0 22.3885 -0.4656
          CHANNELS 6 Xposition Yposition Zposition Zrotation Xrotation Yrotation
          JOINT Head
          {
            OFFSET -0.0001 12.643 3.4389
            CHANNELS 6 Xposition Yposition Zposition Zrotation Xrotation Yrotation
            End Site
            {
              OFFSET 0.0001 17.6655 0.5274
            }
          }
        }
        JOINT LeftCollar
        {
          OFFSET 2.2603 21.606 7.4023
          CHANNELS 6 Xposition Yposition Zposition Zrotation Xrotation Yrotation
          JOINT LeftShoulder
          {
            OFFSET 13.5163 -1.1332 -5.0146
            CHANNELS 6 Xposition Yposition Zposition Zrotation Xrotation Yrotation
            JOINT LeftElbow
            {
              OFFSET -0.0995 -28.05 -0.2431
              CHANNELS 6 Xposition Yposition Zposition Zrotation Xrotation Yrotation
              JOINT LeftWrist
              {
                OFFSET 0.0679 -23.3996 -0.1402
                CHANNELS 6 Xposition Yposition Zposition Zrotation Xrotation Yrotation
                JOINT LeftFinger1
                {
                  OFFSET 0.7932 -9.069 2.5189
                  CHANNELS 6 Xposition Yposition Zposition Zrotation Xrotation Yrotation
                  JOINT LeftFinger11
                  {
                    OFFSET -0.8272 -3.3923 0.5977
                    CHANNELS 6 Xposition Yposition Zposition Zrotation Xrotation Yrotation
                    JOINT LeftFinger12
                    {
                      OFFSET -0.5649 -2.3158 0.4082
                      CHANNELS 6 Xposition Yposition Zposition Zrotation Xrotation Yrotation
                      End Site
                      {
                        OFFSET -0.4919 -1.6479 0.2673
                      }
                    }
                  }
                }
                JOINT LeftFinger2
                {
                  OFFSET 0.9159 -9.2044 0.2193
                  CHANNELS 6 Xposition Yposition Zposition Zrotation Xrotation Yrotation
                  JOINT LeftFinger21
                  {
                    OFFSET 0.0117 -4.1944 -0.0248
                    CHANNELS 6 Xposition Yposition Zposition Zrotation Xrotation Yrotation
                    JOINT LeftFinger22
                    {
                      OFFSET 0.0071 -2.3249 -0.0142
                      CHANNELS 6 Xposition Yposition Zposition Zrotation Xrotation Yrotation
                      End Site
                      {
                        OFFSET -0.1475 -2.0882 0.0028
                      }
                    }
                  }
                }
                JOINT LeftFinger3
                {
                  OFFSET 0.6113 -8.7231 -2.0637
                  CHANNELS 6 Xposition Yposition Zposition Zrotation Xrotation Yrotation
                  JOINT LeftFinger31
                  {
                    OFFSET -0.1927 -3.8059 -0.2383
                    CHANNELS 6 Xposition Yposition Zposition Zrotation Xrotation Yrotation
                    JOINT LeftFinger32
                    {
                      OFFSET -0.1091 -2.1688 -0.1362
                      CHANNELS 6 Xposition Yposition Zposition Zrotation Xrotation Yrotation
                      End Site
                      {
                        OFFSET -0.2358 -1.9176 -0.0906
                      }
                    }
                  }
                }
                JOINT LeftFinger4
                {
                  OFFSET -0.6151 -8.0947 -3.5641
                  CHANNELS 6 Xposition Yposition Zposition Zrotation Xrotation Yrotation
                  JOINT LeftFinger41
                  {
                    OFFSET -0.4882 -2.341 -0.6462
                    CHANNELS 6 Xposition Yposition Zposition Zrotation Xrotation Yrotation
                    JOINT LeftFinger42
                    {
                      OFFSET -0.3575 -1.7167 -0.4742
                      CHANNELS 6 Xposition Yposition Zposition Zrotation Xrotation Yrotation
                      End Site
                      {
                        OFFSET -0.4187 -1.5237 -0.3496
                      }
                    }
                  }
                }
                JOINT LeftFinger0
                {
                  OFFSET -1.42 -1.8761 1.4223
                  CHANNELS 6 Xposition Yposition Zposition Zrotation Xrotation Yrotation
                  JOINT LeftFinger01
                  {
                    OFFSET -1.1471 -3.4929 2.6334
                    CHANNELS 6 Xposition Yposition Zposition Zrotation Xrotation Yrotation
                    JOINT LeftFinger02
                    {
                      OFFSET -0.823 -2.3 1.6571
                      CHANNELS 6 Xposition Yposition Zposition Zrotation Xrotation Yrotation
                      End Site
                      {
                        OFFSET -0.5822 -1.6914 1.1582
                      }
                    }
                  }
                }
              }
            }
          }
        }
        JOINT RightCollar
        {
          OFFSET -2.2603 21.606 7.4023
          CHANNELS 6 Xposition Yposition Zposition Zrotation Xrotation Yrotation
          JOINT RightShoulder
          {
            OFFSET -13.5187 -1.1334 -5.0155
            CHANNELS 6 Xposition Yposition Zposition Zrotation Xrotation Yrotation
            JOINT RightElbow
            {
              OFFSET 0.0994 -28.0499 -0.2431
              CHANNELS 6 Xposition Yposition Zposition Zrotation Xrotation Yrotation
              JOINT RightWrist
              {
                OFFSET -0.0679 -23.3996 -0.1402
                CHANNELS 6 Xposition Yposition Zposition Zrotation Xrotation Yrotation
                JOINT RightFinger1
                {
                  OFFSET -0.7932 -9.0691 2.5189
                  CHANNELS 6 Xposition Yposition Zposition Zrotation Xrotation Yrotation
                  JOINT RightFinger11
                  {
                    OFFSET 0.8272 -3.3923 0.5977
                    CHANNELS 6 Xposition Yposition Zposition Zrotation Xrotation Yrotation
                    JOINT RightFinger12
                    {
                      OFFSET 0.565 -2.3158 0.4082
                      CHANNELS 6 Xposition Yposition Zposition Zrotation Xrotation Yrotation
                      End Site
                      {
                        OFFSET 0.4919 -1.6479 0.2673
                      }
                    }
                  }
                }
                JOINT RightFinger2
                {
                  OFFSET -0.916 -9.2044 0.2193
                  CHANNELS 6 Xposition Yposition Zposition Zrotation Xrotation Yrotation
                  JOINT RightFinger21
                  {
                    OFFSET -0.0117 -4.1944 -0.0248
                    CHANNELS 6 Xposition Yposition Zposition Zrotation Xrotation Yrotation
                    JOINT RightFinger22
                    {
                      OFFSET -0.0071 -2.3249 -0.0142
                      CHANNELS 6 Xposition Yposition Zposition Zrotation Xrotation Yrotation
                      End Site
                      {
                        OFFSET 0.1475 -2.0882 0.0028
                      }
                    }
                  }
                }
                JOINT RightFinger3
                {
                  OFFSET -0.6113 -8.7231 -2.0637
                  CHANNELS 6 Xposition Yposition Zposition Zrotation Xrotation Yrotation
                  JOINT RightFinger31
                  {
                    OFFSET 0.1927 -3.8059 -0.2383
                    CHANNELS 6 Xposition Yposition Zposition Zrotation Xrotation Yrotation
                    JOINT RightFinger32
                    {
                      OFFSET 0.1091 -2.1688 -0.1362
                      CHANNELS 6 Xposition Yposition Zposition Zrotation Xrotation Yrotation
                      End Site
                      {
                        OFFSET 0.2358 -1.9176 -0.0906
                      }
                    }
                  }
                }
                JOINT RightFinger4
                {
                  OFFSET 0.6151 -8.0947 -3.564
                  CHANNELS 6 Xposition Yposition Zposition Zrotation Xrotation Yrotation
                  JOINT RightFinger41
                  {
                    OFFSET 0.4882 -2.341 -0.6462
                    CHANNELS 6 Xposition Yposition Zposition Zrotation Xrotation Yrotation
                    JOINT RightFinger42
                    {
                      OFFSET 0.3574 -1.7166 -0.4742
                      CHANNELS 6 Xposition Yposition Zposition Zrotation Xrotation Yrotation
                      End Site
                      {
                        OFFSET 0.4187 -1.5237 -0.3496
                      }
                    }
                  }
                }
                JOINT RightFinger0
                {
                  OFFSET 1.4199 -1.8761 1.4221
                  CHANNELS 6 Xposition Yposition Zposition Zrotation Xrotation Yrotation
                  JOINT RightFinger01
                  {
                    OFFSET 1.1472 -3.4929 2.6336
                    CHANNELS 6 Xposition Yposition Zposition Zrotation Xrotation Yrotation
                    JOINT RightFinger02
                    {
                      OFFSET 0.8229 -2.3 1.6571
                      CHANNELS 6 Xposition Yposition Zposition Zrotation Xrotation Yrotation
                      End Site
                      {
                        OFFSET 0.5822 -1.6914 1.1582
                      }
                    }
                  }
                }
              }
            }
          }
        }
      }
    }
  }
  JOINT RightHip
  {
    OFFSET -9.412 3.9771 -0.7758
    CHANNELS 6 Xposition Yposition Zposition Zrotation Xrotation Yrotation
    JOINT RightKnee
    {
      OFFSET -0.7531 -40.938 0
      CHANNELS 6 Xposition Yposition Zposition Zrotation Xrotation Yrotation
      JOINT RightAnkle
      {
        OFFSET 0 -40.1986 0
        CHANNELS 6 Xposition Yposition Zposition Zrotation Xrotation Yrotation
        JOINT RightToe
        {
          OFFSET 0 -4.4182 9.239
          CHANNELS 6 Xposition Yposition Zposition Zrotation Xrotation Yrotation
          End Site
          {
            OFFSET 0 0 6.1981
          }
        }
      }
    }
  }
  JOINT LeftHip
  {
    OFFSET 9.4119 3.9773 -0.7758
    CHANNELS 6 Xposition Yposition Zposition Zrotation Xrotation Yrotation
    JOINT LeftKnee
    {
      OFFSET 0.7532 -40.9383 0
      CHANNELS 6 Xposition Yposition Zposition Zrotation Xrotation Yrotation
      JOINT LeftAnkle
      {
        OFFSET 0 -40.1986 0
        CHANNELS 6 Xposition Yposition Zposition Zrotation Xrotation Yrotation
        JOINT LeftToe
        {
          OFFSET 0 -4.4182 9.239
          CHANNELS 6 Xposition Yposition Zposition Zrotation Xrotation Yrotation
          End Site
          {
            OFFSET 0 0 6.1981
          }
        }
      }
    }
  }
}
MOTION
Frames:	4
Frame Time:	0.0333333
5.80788e-005 67.184 3.4734 0 0 -0 0 8.7983 -4.7612 0 0 -0 0 8.0291 0.4195 0 0 -0 0 9.9351 -2.2114 0 0 -0 0 22.3885 -0.4656 0 0 -0 -0.0001 12.643 3.4389 0 0 -0 2.2603 21.606 7.4023 0 0 -12.5014 13.5163 -1.1332 -5.0146 88.1196 14.2451 10.6914 -0.0995 -28.05 -0.2431 -0.00160068 -0.00239207 0.000740045 0.0679 -23.3996 -0.1402 -8.4365e-005 7.00714e-005 -9.52055e-007 0.7932 -9.069 2.5189 9.93923e-017 -1.98785e-016 -1.59028e-015 -0.8272 -3.3923 0.5977 9.93923e-017 -5.96354e-016 -1.59028e-015 -0.5649 -2.3158 0.4082 -9.93923e-017 -5.96354e-016 -1.59028e-015 0.9159 -9.2044 0.2193 9.93923e-017 -1.98785e-016 -1.59028e-015 0.0117 -4.1944 -0.0248 -0.0128176 0.00232552 8.52707e-005 0.0071 -2.3249 -0.0142 9.93923e-017 5.96354e-016 -0 0.6113 -8.7231 -2.0637 9.93923e-017 -1.98785e-016 -1.59028e-015 -0.1927 -3.8059 -0.2383 -0.0160551 0.00299681 0.000857156 -0.1091 -2.1688 -0.1362 -2.48481e-016 0 3.18055e-015 -0.6151 -8.0947 -3.5641 9.93923e-017 -1.98785e-016 -1.59028e-015 -0.4882 -2.341 -0.6462 -0.0125865 0.0031206 0.00282719 -0.3575 -1.7167 -0.4742 0 1.98785e-016 -0 -1.42 -1.8761 1.4223 9.93923e-017 -1.98785e-016 -1.59028e-015 -1.1471 -3.4929 2.6334 9.93923e-017 -5.96354e-016 -1.59028e-015 -0.823 -2.3 1.6571 -9.93923e-017 -5.96354e-016 -1.59028e-015 -2.2603 21.606 7.4023 -0.865644 0.16582 7.03859 -13.5187 -1.1334 -5.0155 -88.0329 10.2057 -10.5567 0.0994 -28.0499 -0.2431 0.0015593 -0.00248883 -0.000788628 -0.0679 -23.3996 -0.1402 7.87605e-005 4.10553e-005 1.24965e-005 -0.7932 -9.0691 2.5189 -3.97569e-016 -7.95139e-016 3.18055e-015 0.8272 -3.3923 0.5977 -1.98785e-016 -3.97569e-016 3.18055e-015 0.565 -2.3158 0.4082 -1.98785e-016 0 3.18055e-015 -0.916 -9.2044 0.2193 -3.97569e-016 -7.95139e-016 3.18055e-015 -0.0117 -4.1944 -0.0248 0.0129473 0.00231697 -8.70038e-005 -0.0071 -2.3249 -0.0142 9.93923e-017 -7.95139e-016 1.59028e-015 -0.6113 -8.7231 -2.0637 -3.97569e-016 -7.95139e-016 3.18055e-015 0.1927 -3.8059 -0.2383 0.0163314 0.00303369 -0.000872333 0.1091 -2.1688 -0.1362 3.97569e-016 7.95139e-016 -3.18055e-015 0.6151 -8.0947 -3.564 -3.97569e-016 -7.95139e-016 3.18055e-015 0.4882 -2.341 -0.6462 0.0145763 0.00367772 -0.00326275 0.3574 -1.7166 -0.4742 9.93923e-017 -3.97569e-016 -0 1.4199 -1.8761 1.4221 -3.97569e-016 -7.95139e-016 3.18055e-015 1.1472 -3.4929 2.6336 -1.98785e-016 -3.97569e-016 3.18055e-015 0.8229 -2.3 1.6571 -1.98785e-016 0 3.18055e-015 -9.412 3.9771 -0.7758 3.42485 1.36937 -0.0640303 -0.7531 -40.938 0 0.000136572 0.69354 0.00145564 1.77636e-015 -40.1986 -1.11022e-016 -3.42573 -2.06297 -0.0607933 8.88178e-016 -4.4182 9.239 -3.19502e-024 0 -1.48106e-024 9.4119 3.9773 -0.7758 -3.42498 1.36123 0.0639712 0.7532 -40.9383 2.22045e-016 -6.769e-005 0.712612 -0.0012277 8.88179e-016 -40.1986 0 3.42582 -2.07388 0.0612819 -8.88178e-016 -4.4182 9.239 2.55305e-023 0 -2.31416e-026 
-18.3622 35.2039 37.6881 0.00856018 4.04007e-015 125.154 0 8.7983 -4.7612 0.348049 2.46645 -0.151812 -7.10543e-015 8.0291 0.4195 0.703617 4.93193 -0.318931 0 9.9351 -2.2114 0.703618 4.93194 -0.318925 3.55271e-015 22.3885 -0.4656 0.0666189 7.36577 -0.0115802 -0.0001 12.643 3.4389 -0.0161412 -27.4103 0.0773952 2.2603 21.606 7.4023 -18.0101 -18.9448 -44.0544 13.5163 -1.1332 -5.0146 31.885 22.9086 -0.840043 -0.0995 -28.05 -0.2431 0.337682 -14.3336 -18.5805 0.0679 -23.3996 -0.1402 -19.5376 -12.9929 -4.44763 0.7932 -9.069 2.5189 1.19271e-015 -4.47266e-016 -3.18055e-015 -0.8272 -3.3923 0.5977 -5.96354e-016 -1.19271e-015 -0 -0.5649 -2.3158 0.4082 -1.59028e-015 -3.18055e-015 6.36111e-015 0.9159 -9.2044 0.2193 1.19271e-015 -4.47266e-016 -3.18055e-015 0.0117 -4.1944 -0.0248 -0.0128241 0.00233046 8.78526e-005 0.0071 -2.3249 -0.0142 -2.0654e-006 5.50387e-006 -4.66345e-006 0.6113 -8.7231 -2.0637 1.19271e-015 -4.47266e-016 -3.18055e-015 -0.1927 -3.8059 -0.2383 -0.0160422 0.00300682 0.000841879 -0.1091 -2.1688 -0.1362 -0 -1.78906e-015 -0 -0.6151 -8.0947 -3.5641 1.19271e-015 -4.47266e-016 -3.18055e-015 -0.4882 -2.341 -0.6462 -0.0125829 0.00312935 0.00281799 -0.3575 -1.7167 -0.4742 -3.97569e-016 -3.57812e-015 -9.54166e-015 -1.42 -1.8761 1.4223 1.19271e-015 -4.47266e-016 -3.18055e-015 -1.1471 -3.4929 2.6334 -5.96354e-016 -1.19271e-015 -0 -0.823 -2.3 1.6571 -1.59028e-015 -3.18055e-015 6.36111e-015 -2.2603 21.606 7.4023 -6.48944 -44.4664 -31.1984 -13.5187 -1.1334 -5.0155 -87.7407 -15.5256 0.742783 0.0994 -28.0499 -0.2431 -67.3485 -44.4944 -61.0326 -0.0679 -23.3996 -0.1402 7.19459 4.26351 -20.0182 -0.7932 -9.0691 2.5189 -1.59028e-015 -4.77083e-015 -6.36111e-015 0.8272 -3.3923 0.5977 -3.18055e-015 0 -0 0.565 -2.3158 0.4082 4.77083e-015 1.59028e-015 -0 -0.916 -9.2044 0.2193 -1.59028e-015 -4.77083e-015 -6.36111e-015 -0.0117 -4.1944 -0.0248 0.0129583 0.00231404 -8.05586e-005 -0.0071 -2.3249 -0.0142 1.76556e-031 -3.18055e-015 3.18055e-015 -0.6113 -8.7231 -2.0637 -1.59028e-015 -4.77083e-015 -6.36111e-015 0.1927 -3.8059 -0.2383 0.0163798 0.00304165 -0.000869879 0.1091 -2.1688 -0.1362 1.59028e-015 -1.14248e-006 -3.18055e-015 0.6151 -8.0947 -3.564 -1.59028e-015 -4.77083e-015 -6.36111e-015 0.4882 -2.341 -0.6462 0.0145714 0.00367383 -0.00326341 0.3574 -1.7166 -0.4742 8.94854e-007 3.32327e-006 2.86792e-006 1.4199 -1.8761 1.4221 -1.59028e-015 -4.77083e-015 -6.36111e-015 1.1472 -3.4929 2.6336 -3.18055e-015 0 -0 0.8229 -2.3 1.6571 4.77083e-015 1.59028e-015 -0 -9.412 3.9771 -0.7758 -1.13371 -12.0465 -3.90639 -0.7531 -40.938 3.55271e-015 -61.9507 85.0989 60.6321 0 -40.1986 1.77636e-015 -8.76044 35.9223 -2.54189 0 -4.4182 9.239 3.18055e-015 1.59028e-015 1.59028e-015 9.4119 3.9773 -0.7758 2.31279 -10.3067 1.74529 0.7532 -40.9383 0 69.8695 84.9634 -67.9817 5.32907e-015 -40.1986 0 8.772 36.0572 -1.01382 7.10543e-015 -4.4182 9.239 -3.18055e-015 7.55382e-015 3.97569e-015 
-30.3423 20.7999 54.478 0.0124054 7.01439e-015 -178.526 0 8.7983 -4.7612 0.510693 3.59529 -0.202049 -3.55271e-015 8.0291 0.4195 1.03718 7.1886 -0.437564 0 9.9351 -2.2114 1.03719 7.1886 -0.437565 0 22.3885 -0.4656 -0.235602 10.8432 0.0406338 -0.0001 12.643 3.4389 -0.0187713 -39.7462 -0.312662 2.2603 21.606 7.4023 -32.2887 -23.0206 -60.0918 13.5163 -1.1332 -5.0146 6.32654 24.3622 -8.465 -0.0995 -28.05 -0.2431 0.185244 -21.4466 -27.1648 0.0679 -23.3996 -0.1402 -28.4367 -18.5701 -6.16052 0.7932 -9.069 2.5189 -3.18055e-015 1.39149e-015 -3.97569e-015 -0.8272 -3.3923 0.5977 4.61394e-006 4.81181e-006 1.52719e-007 -0.5649 -2.3158 0.4082 2.16065e-006 2.71818e-007 9.10174e-007 0.9159 -9.2044 0.2193 -3.18055e-015 1.39149e-015 -3.97569e-015 0.0117 -4.1944 -0.0248 -0.0127971 0.00233967 9.69964e-005 0.0071 -2.3249 -0.0142 6.36111e-015 -1.11319e-014 -1.59028e-015 0.6113 -8.7231 -2.0637 -3.18055e-015 1.39149e-015 -3.97569e-015 -0.1927 -3.8059 -0.2383 -0.0159867 0.00299431 0.000854346 -0.1091 -2.1688 -0.1362 4.61777e-006 -2.94044e-006 -2.24939e-006 -0.6151 -8.0947 -3.5641 -3.18055e-015 1.39149e-015 -3.97569e-015 -0.4882 -2.341 -0.6462 -0.0125836 0.00313174 0.00283514 -0.3575 -1.7167 -0.4742 -6.36111e-015 5.1684e-015 7.95139e-016 -1.42 -1.8761 1.4223 -3.18055e-015 1.39149e-015 -3.97569e-015 -1.1471 -3.4929 2.6334 4.61394e-006 4.81181e-006 1.52719e-007 -0.823 -2.3 1.6571 2.16065e-006 2.71818e-007 9.10174e-007 -2.2603 21.606 7.4023 -32.5473 -49.9471 -63.3731 -13.5187 -1.1334 -5.0155 -87.4937 -27.3511 5.69986 0.0994 -28.0499 -0.2431 -106.47 -60.3744 -94.032 -0.0679 -23.3996 -0.1402 10.1418 5.68762 -28.8545 -0.7932 -9.0691 2.5189 -4.74392e-006 1.20618e-006 -4.8256e-007 0.8272 -3.3923 0.5977 1.68004e-030 -1.15295e-014 8.34896e-015 0.565 -2.3158 0.4082 -6.36111e-015 -1.15295e-014 8.34896e-015 -0.916 -9.2044 0.2193 -4.74392e-006 1.20618e-006 -4.8256e-007 -0.0117 -4.1944 -0.0248 0.0129372 0.0023459 -9.83054e-005 -0.0071 -2.3249 -0.0142 6.36111e-015 -1.98785e-015 3.97569e-016 -0.6113 -8.7231 -2.0637 -4.74392e-006 1.20618e-006 -4.8256e-007 0.1927 -3.8059 -0.2383 0.0163632 0.00306505 -0.000884118 0.1091 -2.1688 -0.1362 6.36111e-015 2.38542e-015 -0 0.6151 -8.0947 -3.564 -4.74392e-006 1.20618e-006 -4.8256e-007 0.4882 -2.341 -0.6462 0.0145786 0.00367706 -0.0032632 0.3574 -1.7166 -0.4742 0 7.95139e-016 -0 1.4199 -1.8761 1.4221 -4.74392e-006 1.20618e-006 -4.8256e-007 1.1472 -3.4929 2.6336 1.68004e-030 -1.15295e-014 8.34896e-015 0.8229 -2.3 1.6571 -6.36111e-015 -1.15295e-014 8.34896e-015 -9.412 3.9771 -0.7758 -3.12779 -17.9557 -7.14367 -0.7531 -40.938 0 -169.832 54.3108 164.878 3.55271e-015 -40.1986 0 -7.80254 54.7137 -6.73483 0 -4.4182 9.239 1.17016e-007 2.85514e-008 1.67872e-006 9.4119 3.9773 -0.7758 4.65813 -15.4944 3.89258 0.7532 -40.9383 0 170.035 53.4515 -164.012 7.10543e-015 -40.1986 0 10.9717 54.9832 -0.826383 3.55271e-015 -4.4182 9.239 7.95139e-016 -1.49173e-009 -3.18055e-015 
-27.6031 23.9015 50.8636 0.0115509 6.88681e-015 168.958 3.55271e-015 8.7983 -4.7612 0.46609 3.38234 -0.187732 3.55271e-015 8.0291 0.4195 0.945777 6.763 -0.404134 0 9.9351 -2.2114 0.945781 6.76303 -0.404133 7.10543e-015 22.3885 -0.4656 -0.907799 10.432 0.157545 -0.0001 12.643 3.4389 -0.000167877 -37.0045 -1.1614 2.2603 21.606 7.4023 -27.8766 -23.309 -56.2487 13.5163 -1.1332 -5.0146 11.2428 24.3478 -6.38084 -0.0995 -28.05 -0.2431 -0.334759 -21.1847 -25.4874 0.0679 -23.3996 -0.1402 -26.6634 -16.6645 -5.41897 0.7932 -9.069 2.5189 -6.36111e-015 -1.03554e-014 -4.07509e-015 -0.8272 -3.3923 0.5977 6.07306e-006 4.09629e-006 1.29931e-007 -0.5649 -2.3158 0.4082 6.36111e-015 -6.95746e-016 -1.44119e-015 0.9159 -9.2044 0.2193 -6.36111e-015 -1.03554e-014 -4.07509e-015 0.0117 -4.1944 -0.0248 -0.0128546 0.00233938 9.2256e-005 0.0071 -2.3249 -0.0142 -6.36111e-015 6.50399e-015 1.36664e-015 0.6113 -8.7231 -2.0637 -6.36111e-015 -1.03554e-014 -4.07509e-015 -0.1927 -3.8059 -0.2383 -0.0160277 0.00300397 0.000857504 -0.1091 -2.1688 -0.1362 3.18055e-015 -7.12519e-015 -5.64051e-015 -0.6151 -8.0947 -3.5641 -6.36111e-015 -1.03554e-014 -4.07509e-015 -0.4882 -2.341 -0.6462 -0.0126324 0.00312966 0.00285461 -0.3575 -1.7167 -0.4742 -2.28313e-006 6.70542e-006 -9.393e-006 -1.42 -1.8761 1.4223 -6.36111e-015 -1.03554e-014 -4.07509e-015 -1.1471 -3.4929 2.6334 6.07306e-006 4.09629e-006 1.29931e-007 -0.823 -2.3 1.6571 6.36111e-015 -6.95746e-016 -1.44119e-015 -2.2603 21.606 7.4023 -25.0822 -50.5887 -53.76 -13.5187 -1.1334 -5.0155 -87.1561 -25.1711 4.83672 0.0994 -28.0499 -0.2431 -96.9915 -57.5421 -85.989 -0.0679 -23.3996 -0.1402 8.9828 4.52596 -26.3407 -0.7932 -9.0691 2.5189 -3.18055e-015 -2.38542e-015 1.59028e-015 0.8272 -3.3923 0.5977 -3.18055e-015 0 3.18055e-015 0.565 -2.3158 0.4082 3.18055e-015 -7.95139e-016 -0 -0.916 -9.2044 0.2193 -3.18055e-015 -2.38542e-015 1.59028e-015 -0.0117 -4.1944 -0.0248 0.0129675 0.00237277 -0.000107297 -0.0071 -2.3249 -0.0142 3.18055e-015 -3.97569e-015 -3.18055e-015 -0.6113 -8.7231 -2.0637 -3.18055e-015 -2.38542e-015 1.59028e-015 0.1927 -3.8059 -0.2383 0.0163479 0.0030304 -0.000882315 0.1091 -2.1688 -0.1362 -0 0 1.59028e-015 0.6151 -8.0947 -3.564 -3.18055e-015 -2.38542e-015 1.59028e-015 0.4882 -2.341 -0.6462 0.0146423 0.00371132 -0.00329171 0.3574 -1.7166 -0.4742 6.36111e-015 0 -1.59028e-015 1.4199 -1.8761 1.4221 -3.18055e-015 -2.38542e-015 1.59028e-015 1.1472 -3.4929 2.6336 -3.18055e-015 0 3.18055e-015 0.8229 -2.3 1.6571 3.18055e-015 -7.95139e-016 -0 -9.412 3.9771 -0.7758 -2.59067 -17.1531 -6.29391 -0.7531 -40.938 0 -167.483 61.9802 163.578 0 -40.1986 0 -8.47805 50.4185 -5.37131 0 -4.4182 9.239 -5.06346e-007 -1.5761e-006 1.72804e-006 9.4119 3.9773 -0.7758 4.27052 -14.8311 3.17328 0.7532 -40.9383 0 167.53 61.1798 -162.691 0 -40.1986 3.55271e-015 10.5658 50.6353 -0.952294 0 -4.4182 9.239 -1.27088e-006 2.3136e-006 -6.24088e-006 
